<svg xmlns="http://www.w3.org/2000/svg" xml:space="preserve" width="2000" height="1500" data-id="lg_YyeSqbpBY5Df6r6P84" data-version="1" viewBox="0 0 2000 1500"><path fill="#fff" stroke="transparent" d="M0 0h2000v1500H0z"/><g data-padding="20"><g transform="translate(-1656.53 -1249.13)scale(2.58736)"><rect width="582.64" height="74.58" x="486.549" y="622.5" fill="none" rx="0" ry="0" transform="matrix(.96 0 0 .96 279.98 206.55)"/><path fill="#1b4571" d="M764.857 859.849v-45.177h17.96q5.166 0 9.189 1.498 4.022 1.488 6.787 4.368 2.774 2.88 4.233 7.046t1.46 9.523q0 4.78-1.287 8.919-1.277 4.128-4.09 7.238-2.803 3.1-7.391 4.848-4.6 1.738-11.213 1.738h-10.81Zm10.416-8.332h5.193q4.887 0 7.748-1.9 2.87-1.902 4.137-5.194 1.267-3.293 1.267-7.44 0-3.14-.748-5.703-.74-2.573-2.276-4.425-1.536-1.853-3.916-2.852-2.372-.998-5.664-.998h-5.741v24.365Zm46.895 8.332h-10.646v-45.177h10.646v38.112Zm39.342 0h-30.288v-45.177h30v8.525h-24.768l4.972-6.874v41.885l-4.31-6.873h24.394Zm-14.2-18.815h-8.264v-7.92h21.168v7.92h-5.895Zm36.088 19.64q-2.823 0-5.78-.46-2.966-.46-5.548-1.19-2.583-.72-4.196-1.517l.759-9.158q2.189 1.238 4.579 2.112t4.78 1.344q2.4.48 4.58.48 2.189 0 3.802-.547 1.622-.538 2.505-1.632.883-1.085.883-2.832 0-1.776-1.152-2.928-1.152-1.162-3.312-2.026-2.15-.873-5.126-1.728-4.118-1.21-7.037-2.803-2.918-1.603-4.454-4.118-1.536-2.525-1.536-6.48 0-3.965 1.747-6.99 1.738-3.023 5.26-4.732 3.514-1.71 8.9-1.71 2.122 0 4.243.27t4.138.71q2.006.442 3.715 1.018 1.718.566 2.986 1.2l-.797 9.187q-2.026-1.267-4.215-2.121-2.18-.855-4.272-1.296-2.092-.452-3.801-.452-1.94 0-3.504.51t-2.487 1.554q-.921 1.047-.921 2.63 0 1.556.873 2.612.874 1.066 2.698 1.872 1.814.806 4.704 1.66 5.414 1.614 8.554 3.37 3.13 1.767 4.444 4.234 1.316 2.467 1.316 6.21 0 4.148-1.805 7.24-1.805 3.09-5.635 4.8-3.84 1.708-9.888 1.708m53.952-.825h-30.288v-45.178h30v8.525h-24.768l4.972-6.874v41.885l-4.31-6.873h24.394Zm-14.19-18.816h-8.274v-7.92h21.168v7.92h-5.895Zm52.177 18.816h-30.452v-45.178h10.425v43.498l-3.61-7.411h23.636Zm29.27 0H993.96v-45.178h10.646v38.112Zm18.845 0h-9.754v-45.178h9.092q3.168 4.627 5.99 8.736 2.822 4.1 5.635 8.218l7.354 10.646h.758v-27.6h9.792v45.178h-8.995q-2.602-3.802-5.453-7.92t-6.24-8.995l-7.45-10.772h-.73v20.62Zm43.257 9.83h-9.792q1.68-2.217 2.774-4.511t1.652-4.83q.547-2.534.547-5.48v-40.177h10.454v40.81q0 2.63-.422 4.78-.432 2.16-1.19 3.87-.76 1.708-1.786 3.07-1.037 1.365-2.237 2.469m45.014-9.832h-30.288v-45.177h30.01v8.525h-24.778l4.973-6.874v41.885l-4.31-6.873h24.393Zm-14.188-18.815h-8.266v-7.92h21.158v7.92h-5.894Zm43.497 19.67q-5.51 0-9.917-1.68-4.406-1.67-7.526-4.8-3.12-3.12-4.771-7.411-1.642-4.291-1.642-9.514 0-6.787 2.755-12.124t7.92-8.372q5.165-3.043 12.356-3.043 2.188 0 4.32.279 2.14.288 4.108.768 1.959.47 3.658 1.084 1.69.624 3.024 1.316l-.787 9.696q-2.477-1.546-4.752-2.487-2.285-.931-4.397-1.363-2.102-.422-4.003-.422-3.87 0-6.874 1.69-3.014 1.698-4.733 4.972-1.728 3.283-1.728 8.006 0 3.005.884 5.684.892 2.678 2.678 4.732 1.786 2.064 4.483 3.236 2.688 1.17 6.307 1.17 1.488 0 2.986-.2 1.507-.212 3.034-.654 1.516-.441 3.033-1.22 1.527-.776 3.043-1.88l.576 9.56q-1.363.76-3.014 1.336-1.642.566-3.466.93t-3.744.538q-1.91.173-3.81.173m42.729-.854h-10.387v-43.527l3.926 7.45h-17.578v-9.1h37.66v9.1h-17.576l3.955-7.45v36.46Zm41.242.854q-6.115 0-10.58-1.881-4.463-1.882-7.353-5.165-2.88-3.274-4.291-7.488t-1.411-8.87q0-6.596 2.61-11.933 2.62-5.338 7.796-8.477 5.184-3.13 12.94-3.13 5.895 0 10.3 1.815 4.408 1.824 7.336 5.059 2.928 3.225 4.387 7.478 1.46 4.243 1.46 9.12 0 6.749-2.68 12.039t-7.842 8.36q-5.165 3.073-12.672 3.073m-.154-8.582q3.13 0 5.472-1.19 2.352-1.181 3.898-3.274 1.555-2.093 2.333-4.771.777-2.68.777-5.655 0-3.14-.844-5.846-.836-2.707-2.44-4.733-1.592-2.026-3.906-3.168t-5.29-1.142q-3.081 0-5.433 1.17-2.362 1.172-3.946 3.246-1.584 2.083-2.41 4.77-.825 2.698-.825 5.703 0 3.015.797 5.683.787 2.679 2.352 4.752 1.574 2.084 3.936 3.264 2.36 1.19 5.53 1.19m40.387 7.729h-10.234v-45.178h17.328q5.51 0 9.33 1.22 3.822 1.228 5.8 4.08 1.977 2.85 1.977 7.756 0 3.898-1.536 6.999-1.536 3.11-4.925 4.915t-8.87 1.805l4.022-3.802 6.144 9.062q1.43 2.093 3.044 4.484 1.612 2.39 3.148 4.656 1.546 2.265 2.717 4.003h-11.817q-1.71-2.66-3.293-5.098T1274.99 850l-7.315-11.53 6.182 4.714h-10.492v-7.44h7.545q2.535 0 4.263-.614 1.718-.624 2.61-2.112.884-1.488.884-4.09 0-1.93-.566-3.12-.576-1.18-1.536-1.853-.97-.662-2.16-.883-1.181-.22-2.39-.22h-14.19l7.412-6.53v36.462Z"/><rect width="358.381" height="29.38" x="598.679" y="645.1" fill="none" rx="0" ry="0" transform="matrix(.96 0 0 .96 275.648 264.413)"/><path fill="#1b4571" d="M860.884 905.655v-17.798h6.25q2.063 0 3.657.595 1.594.585 2.688 1.728t1.66 2.784q.567 1.632.567 3.715 0 1.882-.5 3.514t-1.593 2.86q-1.084 1.23-2.85 1.91-1.767.692-4.302.692h-3.763Zm2.256-1.891h3.33q2.545 0 4.06-.922 1.509-.931 2.17-2.553.664-1.613.664-3.648 0-1.556-.394-2.832t-1.2-2.18q-.806-.912-2.064-1.401-1.248-.49-2.957-.49h-3.61v11.904Zm18.46 1.89h-2.294v-17.797h2.295v14.937Zm15.725 0h-11.088v-17.797h11.06v1.93h-10.1l1.248-1.604v17.136l-1.123-1.603h10.003Zm-5.913-8.073h-3.447v-1.89h8.832v1.89h-2.467Zm14.813 8.343q-1.114 0-2.247-.202-1.123-.211-2.083-.51-.95-.306-1.536-.623l.21-2.13q.836.46 1.739.806.902.345 1.843.528.95.192 1.93.192 1.113 0 2.006-.308.893-.307 1.41-.98.52-.661.52-1.746 0-.95-.538-1.565-.538-.624-1.555-1.075-1.018-.442-2.467-.893-1.69-.537-2.89-1.161t-1.834-1.546q-.624-.912-.624-2.333 0-1.392.653-2.486.653-1.104 1.949-1.728 1.306-.634 3.226-.634.796 0 1.574.115.778.116 1.498.308.71.192 1.296.432.585.23.998.48l-.23 2.15q-.76-.51-1.604-.854-.854-.346-1.69-.51-.834-.172-1.545-.172-1.008 0-1.862.298-.845.297-1.363.92-.52.616-.52 1.585 0 .855.433 1.41.442.568 1.383 1.009.94.442 2.428.922 2.15.672 3.38 1.363 1.228.69 1.747 1.603t.518 2.237q0 1.46-.643 2.602-.643 1.152-2.006 1.824t-3.504.672m20.563-.27H915.7v-17.797h11.06v1.93h-10.1l1.248-1.604v17.136l-1.123-1.603h10.003Zm-5.913-8.073h-3.447v-1.89h8.832v1.89h-2.467Zm20.764 8.074h-11.126v-17.798h2.266v17.442l-.855-1.661h9.715Zm10.156 0h-2.217v-17.798h6.288q2.035 0 3.36.537 1.335.538 1.997 1.66.662 1.134.662 2.89 0 1.642-.604 2.909-.605 1.268-2.026 1.988t-3.86.72h-3.897v-1.872h3.466q1.603 0 2.62-.375t1.498-1.19q.49-.826.49-2.16 0-1.104-.355-1.747-.356-.653-.932-.97-.585-.317-1.257-.422-.672-.096-1.315-.096H950.7l1.095-1.546v14.61Zm20.267.269q-2.487 0-4.032-.855-1.555-.854-2.285-2.41-.73-1.545-.73-3.618v-11.184h2.247v10.953q0 1.613.47 2.775t1.527 1.776q1.056.624 2.803.624 1.757 0 2.803-.624 1.046-.615 1.507-1.776t.46-2.794v-10.934h2.247v11.184q0 2.073-.74 3.619-.738 1.555-2.284 2.41-1.545.854-3.993.854m12.94-.27h-2.16q.183-1.45.356-2.86.182-1.411.384-3.072l.739-5.865.374-3.044q.173-1.41.375-2.956h2.265q.778 1.9 1.498 3.667.73 1.757 1.44 3.504l2.822 6.92h.173l2.794-6.901q.71-1.776 1.42-3.523t1.479-3.667h2.266q.192 1.526.355 2.928.173 1.41.384 3.062l.72 5.923.374 3.015q.183 1.392.355 2.87h-2.16l-.547-4.512q-.27-2.131-.49-3.974l-.652-5.32h-.163l-2.256 5.732q-.826 2.084-1.642 4.176-.826 2.084-1.536 3.898h-1.536q-.451-1.142-.998-2.496-.548-1.363-1.133-2.784-.576-1.42-1.133-2.755l-2.333-5.77h-.163l-.643 5.3q-.23 1.862-.48 3.993Zm24.595 0h-2.227v-17.797h6.288q2.035 0 3.37.537 1.325.538 1.987 1.66.662 1.134.662 2.89 0 1.642-.604 2.909-.605 1.268-2.026 1.988-1.411.72-3.86.72h-3.897v-1.872h3.475q1.594 0 2.612-.375 1.017-.374 1.507-1.19.48-.826.48-2.16 0-1.104-.355-1.747-.356-.653-.932-.97-.585-.317-1.257-.422-.672-.096-1.306-.096h-5.02l1.103-1.546v14.61Zm23.386.27q-1.114 0-2.246-.202-1.124-.211-2.084-.51-.95-.306-1.536-.623l.212-2.13q.835.46 1.737.806.903.345 1.853.528.94.192 1.92.192 1.114 0 2.006-.308.893-.307 1.412-.98.518-.661.518-1.746 0-.95-.538-1.565-.537-.624-1.555-1.075-1.017-.442-2.467-.893-1.69-.537-2.89-1.161t-1.833-1.546q-.624-.912-.624-2.333 0-1.392.653-2.486.652-1.104 1.948-1.728 1.306-.634 3.226-.634.797 0 1.574.115.788.116 1.498.308t1.296.432q.586.23.998.48l-.23 2.15q-.758-.51-1.603-.854-.855-.346-1.69-.51-.835-.172-1.545-.172-1.008 0-1.863.298-.845.297-1.363.92-.518.616-.518 1.585 0 .855.44 1.41.433.568 1.374 1.009.94.442 2.429.922 2.15.672 3.379 1.363t1.747 1.603.519 2.237q0 1.46-.644 2.602-.643 1.152-2.006 1.824t-3.504.672m11.693-.27h-2.227v-17.797h6.297q2.035 0 3.36.537t1.987 1.66q.663 1.134.663 2.89 0 1.642-.605 2.909-.605 1.268-2.016 1.988-1.42.72-3.87.72h-3.887v-1.872h3.466q1.593 0 2.61-.375 1.019-.374 1.508-1.19.49-.826.49-2.16 0-1.104-.355-1.747-.356-.653-.941-.97-.576-.317-1.248-.422-.682-.096-1.315-.096h-5.021l1.104-1.546v14.61Zm14.16 0h-2.285q.528-1.44 1.095-3.023.566-1.584 1.094-3.005l2.208-6.115q.586-1.651 1.075-2.976.48-1.334.97-2.678h2.966q.49 1.372.96 2.697.48 1.325 1.066 2.967l2.198 6.124q.519 1.479 1.076 3.034l1.065 2.976h-2.342l-1.104-3.216-1.066-3.11-3.245-9.437h-.21l-3.274 9.35q-.538 1.517-1.114 3.187-.566 1.66-1.133 3.226m10.387-4.474h-9.38l.203-1.766h9.014Zm8.323 4.474h-2.208v-17.798h6.02q2.025 0 3.379.48 1.363.48 2.035 1.545.68 1.056.68 2.794 0 1.459-.565 2.669t-1.891 1.939-3.581.739l.71-.98 2.813 3.505q.663.816 1.392 1.737.74.922 1.44 1.805.7.874 1.248 1.565h-2.65q-.883-1.123-1.7-2.17-.815-1.056-1.621-2.054l-3.187-4.118 1.382 1.113h-4.08v-1.862h3.38q1.564 0 2.572-.355 1.008-.365 1.507-1.172t.5-2.14q0-1.114-.356-1.748-.355-.643-.93-.95-.586-.298-1.258-.384t-1.296-.086h-5.242l1.507-1.546v14.61Zm25.594 0h-11.08v-17.798h11.06v1.93h-10.1l1.249-1.604v17.136l-1.123-1.603h9.994Zm-5.914-8.074h-3.446v-1.89h8.84v1.89h-2.465Zm16.647 8.074h-2.218v-17.798h6.288q2.035 0 3.36.537 1.334.538 1.997 1.66.662 1.134.662 2.89 0 1.642-.605 2.909-.604 1.268-2.025 1.988-1.411.72-3.86.72h-3.897v-1.872h3.475q1.594 0 2.61-.375 1.019-.374 1.509-1.19.48-.826.48-2.16 0-1.104-.356-1.747-.355-.653-.93-.97-.586-.317-1.258-.422-.672-.096-1.306-.096h-5.02l1.094-1.546v14.61Zm14.17 0h-2.285q.518-1.44 1.085-3.024l1.094-3.005 2.208-6.115q.586-1.651 1.075-2.976.49-1.334.97-2.678h2.976q.49 1.372.96 2.697t1.056 2.967l2.198 6.124 1.085 3.034 1.066 2.976h-2.352q-.528-1.565-1.104-3.216l-1.066-3.11-3.245-9.437h-.211l-3.264 9.35q-.538 1.517-1.114 3.187-.576 1.66-1.132 3.226m10.377-4.474h-9.37l.202-1.766h9.005Zm8.333 4.474h-2.218v-17.798h6.02q2.034 0 3.388.48t2.035 1.545q.682 1.056.682 2.794 0 1.459-.567 2.669-.576 1.21-1.89 1.939-1.326.73-3.582.739l.71-.98 2.804 3.505q.662.816 1.402 1.737l1.43 1.805q.7.874 1.248 1.565h-2.64q-.893-1.123-1.71-2.17-.815-1.056-1.612-2.054l-3.196-4.118 1.382 1.113h-4.08v-1.862h3.389q1.555 0 2.563-.355 1.018-.365 1.517-1.172t.499-2.14q0-1.114-.355-1.748-.355-.643-.941-.95-.576-.298-1.258-.384-.672-.086-1.296-.086h-5.241l1.517-1.546v14.61Zm21.34 0h-2.265v-17.472l.902 1.68h-6.998v-2.006h14.448v2.006h-7l.913-1.68v14.61Zm14.333.269q-1.104 0-2.237-.202-1.132-.211-2.083-.51-.96-.306-1.545-.623l.21-2.13q.836.46 1.748.806.902.345 1.843.528.94.192 1.93.192 1.113 0 2.006-.308.893-.307 1.402-.98.518-.661.518-1.746 0-.95-.528-1.565-.537-.624-1.555-1.075-1.018-.442-2.467-.893-1.7-.537-2.9-1.161-1.19-.624-1.823-1.546-.634-.912-.634-2.333 0-1.392.653-2.486.662-1.104 1.958-1.728 1.296-.634 3.216-.634.807 0 1.584.115.778.116 1.488.308t1.296.432q.586.23.999.48l-.221 2.15q-.76-.51-1.613-.854-.845-.346-1.68-.51-.835-.172-1.546-.172-1.017 0-1.862.298-.854.297-1.373.92-.51.616-.51 1.585 0 .855.433 1.41.442.568 1.383 1.009.94.442 2.429.922 2.14.672 3.37 1.363 1.228.69 1.746 1.603t.519 2.237q0 1.46-.643 2.602-.644 1.152-1.997 1.824-1.363.672-3.514.672M1026.29 782.01c-13.205 0-26.41-.038-39.615.038-1.9.01-2.974-.59-3.924-2.27a18078 18078 0 0 0-39.624-69.892c-.912-1.606-.827-2.793.057-4.332a19544 19544 0 0 0 39.88-70.024c.913-1.606 1.958-2.138 3.763-2.138q39.729.07 79.458 0c1.777 0 2.812.494 3.734 2.128a13389 13389 0 0 0 39.358 69.227c1.254 2.184 1.244 3.828 0 6.013a12424 12424 0 0 0-38.94 68.38c-1.207 2.138-2.537 2.946-5.017 2.917-13.043-.123-26.087-.056-39.14-.056Zm-27.332-117.543v92.568c26.24-14.897 52.07-29.565 78.337-44.48a585411 585411 0 0 1-78.337-48.09m2.727-3.276c25.697 15.77 50.882 31.226 76.636 47.034-.275-2.08-.4-3.467-.646-4.826-3.61-20.14-7.24-40.27-10.84-60.41-.503-2.822-.522-2.888-3.343-1.967a96733 96733 0 0 0-48.697 15.827c-4.18 1.359-8.341 2.755-13.12 4.332Zm-7.467 94.05v-89.633l-44.86 43.12c14.897 15.448 29.622 30.724 44.86 46.522Zm8.33 4.712c.904.342 1.322.55 1.749.655 19.086 4.75 38.18 9.51 57.276 14.24 3.078.76 3.069.704 3.78-2.336 4.086-17.537 8.19-35.074 12.266-52.611.18-.78.237-1.586.437-2.964-25.375 14.45-50.19 28.595-75.516 43.016Zm-14.116-122.19c.419 1.084.666 1.825.989 2.518 2.394 5.159 4.91 10.26 7.144 15.485.845 1.976 1.814 2.07 3.61 1.482 17.708-5.804 35.444-11.542 53.162-17.31 1.776-.578 3.534-1.234 5.29-1.851-.037-.105-.084-.22-.122-.323Zm84.465 11.43c-.18.075-.37.15-.551.237.428 2.394.864 4.797 1.283 7.192 3.049 17.176 6.118 34.342 9.12 51.528.285 1.643.807 2.099 2.489 1.68 3.828-.94 7.723-1.652 11.57-2.507 2.518-.56 5.017-1.206 7.905-1.9a158978 158978 0 0 0-31.825-56.23Zm-122.008 51.337.342.314c.247-.161.532-.294.75-.503 13.604-13.006 27.189-26.021 40.812-38.998 1.092-1.035 1.007-1.89.437-3.106-2.432-5.14-4.778-10.327-7.182-15.485-.266-.58-.684-1.084-1.244-1.958-11.457 20.188-22.686 39.958-33.915 59.737m154.166 9.052c-7.391 1.577-14.032 2.945-20.615 4.493-.703.162-1.482 1.34-1.682 2.176-4.151 17.423-8.236 34.874-12.312 52.316-.123.532-.133 1.093-.2 1.644.134.028.267.066.4.095 11.352-20.026 22.695-40.043 34.418-60.724Zm-50.655 68.21.057-.285c-.484-.19-.95-.427-1.453-.551-17.613-4.436-35.236-8.844-52.84-13.31-1.757-.446-2.963-.247-3.875 1.53-1.083 2.1-2.451 4.057-3.667 6.08-1.235 2.062-2.442 4.142-3.848 6.527h65.626Zm-69.207-2.356c2.565-4.294 4.703-8.151 7.134-11.808 1.292-1.948 1.15-3.136-.484-4.817-11.913-12.198-23.721-24.5-35.568-36.756-.504-.522-1.064-.988-1.596-1.472-.133.114-.266.219-.4.332 10.213 18.003 20.416 36.005 30.914 54.53Z"/></g><path fill="transparent" stroke="transparent" stroke-width="2.683" d="M250 375.67h1500v748.66H250z"/></g></svg>